<svg xmlns="http://www.w3.org/2000/svg" viewBox="0 0 33.27 33.28"><defs><style>.cls-1{fill:none;stroke:#b72929;stroke-miterlimit:10;}</style></defs><g id="Calque_2" data-name="Calque 2"><g id="OBJECTS"><path class="cls-1" d="M18.48,32.76l-.26,0h-6c-.11,0-.17,0-.16-.16s0-.11,0-.17V11.29c.19-.06,6.16-.07,6.43,0,0,.3,0,.6,0,.9V14l.13-.18a7.48,7.48,0,0,1,4.88-3.15,9,9,0,0,1,2.32-.09,8.19,8.19,0,0,1,3.18.9,6.66,6.66,0,0,1,3.09,3.56,9.68,9.68,0,0,1,.6,2.44,12.89,12.89,0,0,1,.09,1.76V32.73c-.2.07-6.42.07-6.65,0,0-.09,0-.19,0-.29V21.55a8.52,8.52,0,0,0-.26-2.24A4.22,4.22,0,0,0,25.3,18a2.88,2.88,0,0,0-1.77-1.24,4.4,4.4,0,0,0-2.49.1,3.42,3.42,0,0,0-2.18,2.19,5.85,5.85,0,0,0-.35,1.7c0,.46,0,.91,0,1.37v10.6Z"/><path class="cls-1" d="M7.82,32.74c-.2.06-6.45.06-6.64,0,0-.16-.06-21.17,0-21.47h0l.08,0H7.77l0,0C7.85,11.43,7.87,32.45,7.82,32.74Z"/><path class="cls-1" d="M8.41,4.48A4,4,0,1,1,.5,4.5a4,4,0,1,1,7.91,0Z"/></g></g></svg>