<svg width="541" height="200" viewBox="0 0 541 200" fill="none" xmlns="http://www.w3.org/2000/svg">
<rect width="120" height="200" fill="#9F1414"/>
<path d="M240.064 77.384C237.504 77.384 235.136 76.968 232.96 76.136C230.816 75.272 228.944 74.072 227.344 72.536C225.776 70.968 224.544 69.144 223.648 67.064C222.752 64.984 222.304 62.696 222.304 60.2C222.304 57.704 222.752 55.416 223.648 53.336C224.544 51.256 225.792 49.448 227.392 47.912C228.992 46.344 230.864 45.144 233.008 44.312C235.184 43.448 237.552 43.016 240.112 43.016C242.704 43.016 245.088 43.464 247.264 44.36C249.472 45.224 251.344 46.52 252.88 48.248L249.76 51.272C248.48 49.928 247.04 48.936 245.44 48.296C243.84 47.624 242.128 47.288 240.304 47.288C238.416 47.288 236.656 47.608 235.024 48.248C233.424 48.888 232.032 49.784 230.848 50.936C229.664 52.088 228.736 53.464 228.064 55.064C227.424 56.632 227.104 58.344 227.104 60.2C227.104 62.056 227.424 63.784 228.064 65.384C228.736 66.952 229.664 68.312 230.848 69.464C232.032 70.616 233.424 71.512 235.024 72.152C236.656 72.792 238.416 73.112 240.304 73.112C242.128 73.112 243.84 72.792 245.44 72.152C247.04 71.48 248.48 70.456 249.76 69.08L252.88 72.104C251.344 73.832 249.472 75.144 247.264 76.04C245.088 76.936 242.688 77.384 240.064 77.384ZM283.824 43.4H288.624V77H283.824V43.4ZM264.528 77H259.728V43.4H264.528V77ZM284.256 62.024H264.048V57.848H284.256V62.024ZM298.681 77V43.4H303.481V72.824H321.673V77H298.681ZM341.739 77.384C339.179 77.384 336.795 76.952 334.587 76.088C332.411 75.224 330.523 74.024 328.923 72.488C327.323 70.92 326.075 69.096 325.179 67.016C324.283 64.936 323.835 62.664 323.835 60.2C323.835 57.736 324.283 55.464 325.179 53.384C326.075 51.304 327.323 49.496 328.923 47.96C330.523 46.392 332.411 45.176 334.587 44.312C336.763 43.448 339.147 43.016 341.739 43.016C344.299 43.016 346.651 43.448 348.795 44.312C350.971 45.144 352.859 46.344 354.459 47.912C356.091 49.448 357.339 51.256 358.203 53.336C359.099 55.416 359.547 57.704 359.547 60.2C359.547 62.696 359.099 64.984 358.203 67.064C357.339 69.144 356.091 70.968 354.459 72.536C352.859 74.072 350.971 75.272 348.795 76.136C346.651 76.968 344.299 77.384 341.739 77.384ZM341.739 73.112C343.595 73.112 345.307 72.792 346.875 72.152C348.475 71.512 349.851 70.616 351.003 69.464C352.187 68.28 353.099 66.904 353.739 65.336C354.411 63.768 354.747 62.056 354.747 60.2C354.747 58.344 354.411 56.632 353.739 55.064C353.099 53.496 352.187 52.136 351.003 50.984C349.851 49.8 348.475 48.888 346.875 48.248C345.307 47.608 343.595 47.288 341.739 47.288C339.851 47.288 338.107 47.608 336.507 48.248C334.939 48.888 333.563 49.8 332.379 50.984C331.195 52.136 330.267 53.496 329.595 55.064C328.955 56.632 328.635 58.344 328.635 60.2C328.635 62.056 328.955 63.768 329.595 65.336C330.267 66.904 331.195 68.28 332.379 69.464C333.563 70.616 334.939 71.512 336.507 72.152C338.107 72.792 339.851 73.112 341.739 73.112ZM371.252 57.896H388.532V61.976H371.252V57.896ZM371.684 72.824H391.268V77H366.884V43.4H390.596V47.576H371.684V72.824ZM375.188 40.664L381.716 34.424H387.572L379.508 40.664H375.188ZM225.04 157V123.4H239.2C242.784 123.4 245.936 124.104 248.656 125.512C251.408 126.92 253.536 128.888 255.04 131.416C256.576 133.944 257.344 136.872 257.344 140.2C257.344 143.528 256.576 146.456 255.04 148.984C253.536 151.512 251.408 153.48 248.656 154.888C245.936 156.296 242.784 157 239.2 157H225.04ZM229.84 152.824H238.912C241.696 152.824 244.096 152.296 246.112 151.24C248.16 150.184 249.744 148.712 250.864 146.824C251.984 144.904 252.544 142.696 252.544 140.2C252.544 137.672 251.984 135.464 250.864 133.576C249.744 131.688 248.16 130.216 246.112 129.16C244.096 128.104 241.696 127.576 238.912 127.576H229.84V152.824ZM269.064 137.896H286.344V141.976H269.064V137.896ZM269.496 152.824H289.08V157H264.696V123.4H288.408V127.576H269.496V152.824ZM306.645 157.384C304.085 157.384 301.637 157 299.301 156.232C296.965 155.432 295.125 154.408 293.781 153.16L295.557 149.416C296.837 150.536 298.469 151.464 300.453 152.2C302.437 152.936 304.501 153.304 306.645 153.304C308.597 153.304 310.181 153.08 311.397 152.632C312.613 152.184 313.509 151.576 314.085 150.808C314.661 150.008 314.949 149.112 314.949 148.12C314.949 146.968 314.565 146.04 313.797 145.336C313.061 144.632 312.085 144.072 310.869 143.656C309.685 143.208 308.373 142.824 306.933 142.504C305.493 142.184 304.037 141.816 302.565 141.4C301.125 140.952 299.797 140.392 298.581 139.72C297.397 139.048 296.437 138.152 295.701 137.032C294.965 135.88 294.597 134.408 294.597 132.616C294.597 130.888 295.045 129.304 295.941 127.864C296.869 126.392 298.277 125.224 300.165 124.36C302.085 123.464 304.517 123.016 307.461 123.016C309.413 123.016 311.349 123.272 313.269 123.784C315.189 124.296 316.853 125.032 318.26 125.992L316.677 129.832C315.237 128.872 313.717 128.184 312.117 127.768C310.517 127.32 308.965 127.096 307.461 127.096C305.573 127.096 304.021 127.336 302.805 127.816C301.589 128.296 300.693 128.936 300.117 129.736C299.573 130.536 299.301 131.432 299.301 132.424C299.301 133.608 299.669 134.552 300.405 135.256C301.173 135.96 302.149 136.52 303.333 136.936C304.549 137.352 305.877 137.736 307.317 138.088C308.757 138.408 310.197 138.776 311.637 139.192C313.109 139.608 314.437 140.152 315.621 140.824C316.837 141.496 317.813 142.392 318.549 143.512C319.285 144.632 319.653 146.072 319.653 147.832C319.653 149.528 319.189 151.112 318.26 152.584C317.333 154.024 315.893 155.192 313.941 156.088C312.021 156.952 309.589 157.384 306.645 157.384ZM341.689 157.384C339.129 157.384 336.761 156.968 334.585 156.136C332.441 155.272 330.569 154.072 328.969 152.536C327.401 150.968 326.169 149.144 325.273 147.064C324.377 144.984 323.929 142.696 323.929 140.2C323.929 137.704 324.377 135.416 325.273 133.336C326.169 131.256 327.417 129.448 329.017 127.912C330.617 126.344 332.489 125.144 334.633 124.312C336.809 123.448 339.177 123.016 341.737 123.016C344.329 123.016 346.713 123.464 348.889 124.36C351.097 125.224 352.969 126.52 354.505 128.248L351.385 131.272C350.105 129.928 348.665 128.936 347.065 128.296C345.465 127.624 343.753 127.288 341.929 127.288C340.041 127.288 338.281 127.608 336.649 128.248C335.049 128.888 333.657 129.784 332.473 130.936C331.289 132.088 330.361 133.464 329.689 135.064C329.049 136.632 328.729 138.344 328.729 140.2C328.729 142.056 329.049 143.784 329.689 145.384C330.361 146.952 331.289 148.312 332.473 149.464C333.657 150.616 335.049 151.512 336.649 152.152C338.281 152.792 340.041 153.112 341.929 153.112C343.753 153.112 345.465 152.792 347.065 152.152C348.665 151.48 350.105 150.456 351.385 149.08L354.505 152.104C352.969 153.832 351.097 155.144 348.889 156.04C346.713 156.936 344.313 157.384 341.689 157.384ZM385.449 123.4H390.249V157H385.449V123.4ZM366.153 157H361.353V123.4H366.153V157ZM385.881 142.024H365.673V137.848H385.881V142.024ZM395.218 157L410.434 123.4H415.186L430.45 157H425.41L411.826 126.088H413.746L400.162 157H395.218ZM401.698 148.6L402.994 144.76H421.906L423.298 148.6H401.698ZM435.462 157V123.4H439.398L454.47 148.792H452.358L467.238 123.4H471.174L471.222 157H466.614L466.566 130.648H467.67L454.422 152.92H452.214L438.87 130.648H440.07V157H435.462ZM481.306 157V123.4H494.41C497.354 123.4 499.866 123.864 501.946 124.792C504.026 125.72 505.626 127.064 506.746 128.824C507.866 130.584 508.426 132.68 508.426 135.112C508.426 137.544 507.866 139.64 506.746 141.4C505.626 143.128 504.026 144.472 501.946 145.432C499.866 146.36 497.354 146.824 494.41 146.824H483.946L486.106 144.568V157H481.306ZM486.106 145.048L483.946 142.648H494.266C497.338 142.648 499.658 141.992 501.226 140.68C502.826 139.368 503.626 137.512 503.626 135.112C503.626 132.712 502.826 130.856 501.226 129.544C499.658 128.232 497.338 127.576 494.266 127.576H483.946L486.106 125.176V145.048ZM525.738 157.384C523.178 157.384 520.73 157 518.394 156.232C516.058 155.432 514.218 154.408 512.874 153.16L514.65 149.416C515.93 150.536 517.562 151.464 519.546 152.2C521.53 152.936 523.594 153.304 525.738 153.304C527.69 153.304 529.274 153.08 530.49 152.632C531.706 152.184 532.602 151.576 533.178 150.808C533.754 150.008 534.042 149.112 534.042 148.12C534.042 146.968 533.658 146.04 532.89 145.336C532.154 144.632 531.178 144.072 529.962 143.656C528.778 143.208 527.466 142.824 526.026 142.504C524.586 142.184 523.13 141.816 521.658 141.4C520.218 140.952 518.89 140.392 517.674 139.72C516.49 139.048 515.53 138.152 514.794 137.032C514.058 135.88 513.69 134.408 513.69 132.616C513.69 130.888 514.138 129.304 515.034 127.864C515.962 126.392 517.37 125.224 519.258 124.36C521.178 123.464 523.61 123.016 526.554 123.016C528.506 123.016 530.442 123.272 532.362 123.784C534.282 124.296 535.946 125.032 537.354 125.992L535.77 129.832C534.33 128.872 532.81 128.184 531.21 127.768C529.61 127.32 528.058 127.096 526.554 127.096C524.666 127.096 523.114 127.336 521.898 127.816C520.682 128.296 519.786 128.936 519.21 129.736C518.666 130.536 518.394 131.432 518.394 132.424C518.394 133.608 518.762 134.552 519.498 135.256C520.266 135.96 521.242 136.52 522.426 136.936C523.642 137.352 524.97 137.736 526.41 138.088C527.85 138.408 529.29 138.776 530.73 139.192C532.202 139.608 533.53 140.152 534.714 140.824C535.93 141.496 536.906 142.392 537.642 143.512C538.378 144.632 538.746 146.072 538.746 147.832C538.746 149.528 538.282 151.112 537.354 152.584C536.426 154.024 534.986 155.192 533.034 156.088C531.114 156.952 528.682 157.384 525.738 157.384Z" fill="black"/>
</svg>
