<svg width="270" height="70" viewBox="0 0 270 70" fill="none" xmlns="http://www.w3.org/2000/svg">
<rect width="42" height="70" fill="#9F1414"/>
<path d="M66.36 42.16C65.2933 42.16 64.3067 41.9867 63.4 41.64C62.5067 41.28 61.7267 40.78 61.06 40.14C60.4067 39.4867 59.8933 38.7267 59.52 37.86C59.1467 36.9933 58.96 36.04 58.96 35C58.96 33.96 59.1467 33.0067 59.52 32.14C59.8933 31.2733 60.4133 30.52 61.08 29.88C61.7467 29.2267 62.5267 28.7267 63.42 28.38C64.3267 28.02 65.3133 27.84 66.38 27.84C67.46 27.84 68.4533 28.0267 69.36 28.4C70.28 28.76 71.06 29.3 71.7 30.02L70.4 31.28C69.8667 30.72 69.2667 30.3067 68.6 30.04C67.9333 29.76 67.22 29.62 66.46 29.62C65.6733 29.62 64.94 29.7533 64.26 30.02C63.5933 30.2867 63.0133 30.66 62.52 31.14C62.0267 31.62 61.64 32.1933 61.36 32.86C61.0933 33.5133 60.96 34.2267 60.96 35C60.96 35.7733 61.0933 36.4933 61.36 37.16C61.64 37.8133 62.0267 38.38 62.52 38.86C63.0133 39.34 63.5933 39.7133 64.26 39.98C64.94 40.2467 65.6733 40.38 66.46 40.38C67.22 40.38 67.9333 40.2467 68.6 39.98C69.2667 39.7 69.8667 39.2733 70.4 38.7L71.7 39.96C71.06 40.68 70.28 41.2267 69.36 41.6C68.4533 41.9733 67.4533 42.16 66.36 42.16ZM84.5931 28H86.5931V42H84.5931V28ZM76.5531 42H74.5531V28H76.5531V42ZM84.7731 35.76H76.3531V34.02H84.7731V35.76ZM90.7836 42V28H92.7836V40.26H100.364V42H90.7836ZM108.725 42.16C107.658 42.16 106.665 41.98 105.745 41.62C104.838 41.26 104.051 40.76 103.385 40.12C102.718 39.4667 102.198 38.7067 101.825 37.84C101.451 36.9733 101.265 36.0267 101.265 35C101.265 33.9733 101.451 33.0267 101.825 32.16C102.198 31.2933 102.718 30.54 103.385 29.9C104.051 29.2467 104.838 28.74 105.745 28.38C106.651 28.02 107.645 27.84 108.725 27.84C109.791 27.84 110.771 28.02 111.665 28.38C112.571 28.7267 113.358 29.2267 114.025 29.88C114.705 30.52 115.225 31.2733 115.585 32.14C115.958 33.0067 116.145 33.96 116.145 35C116.145 36.04 115.958 36.9933 115.585 37.86C115.225 38.7267 114.705 39.4867 114.025 40.14C113.358 40.78 112.571 41.28 111.665 41.64C110.771 41.9867 109.791 42.16 108.725 42.16ZM108.725 40.38C109.498 40.38 110.211 40.2467 110.865 39.98C111.531 39.7133 112.105 39.34 112.585 38.86C113.078 38.3667 113.458 37.7933 113.725 37.14C114.005 36.4867 114.145 35.7733 114.145 35C114.145 34.2267 114.005 33.5133 113.725 32.86C113.458 32.2067 113.078 31.64 112.585 31.16C112.105 30.6667 111.531 30.2867 110.865 30.02C110.211 29.7533 109.498 29.62 108.725 29.62C107.938 29.62 107.211 29.7533 106.545 30.02C105.891 30.2867 105.318 30.6667 104.825 31.16C104.331 31.64 103.945 32.2067 103.665 32.86C103.398 33.5133 103.265 34.2267 103.265 35C103.265 35.7733 103.398 36.4867 103.665 37.14C103.945 37.7933 104.331 38.3667 104.825 38.86C105.318 39.34 105.891 39.7133 106.545 39.98C107.211 40.2467 107.938 40.38 108.725 40.38ZM121.022 34.04H128.222V35.74H121.022V34.04ZM121.202 40.26H129.362V42H119.202V28H129.082V29.74H121.202V40.26ZM122.662 26.86L125.382 24.26H127.822L124.462 26.86H122.662ZM137.971 42V28H143.871C145.364 28 146.678 28.2933 147.811 28.88C148.958 29.4667 149.844 30.2867 150.471 31.34C151.111 32.3933 151.431 33.6133 151.431 35C151.431 36.3867 151.111 37.6067 150.471 38.66C149.844 39.7133 148.958 40.5333 147.811 41.12C146.678 41.7067 145.364 42 143.871 42H137.971ZM139.971 40.26H143.751C144.911 40.26 145.911 40.04 146.751 39.6C147.604 39.16 148.264 38.5467 148.731 37.76C149.198 36.96 149.431 36.04 149.431 35C149.431 33.9467 149.198 33.0267 148.731 32.24C148.264 31.4533 147.604 30.84 146.751 30.4C145.911 29.96 144.911 29.74 143.751 29.74H139.971V40.26ZM156.315 34.04H163.515V35.74H156.315V34.04ZM156.495 40.26H164.655V42H154.495V28H164.375V29.74H156.495V40.26ZM171.973 42.16C170.906 42.16 169.886 42 168.913 41.68C167.94 41.3467 167.173 40.92 166.613 40.4L167.353 38.84C167.886 39.3067 168.566 39.6933 169.393 40C170.22 40.3067 171.08 40.46 171.973 40.46C172.786 40.46 173.446 40.3667 173.953 40.18C174.46 39.9933 174.833 39.74 175.073 39.42C175.313 39.0867 175.433 38.7133 175.433 38.3C175.433 37.82 175.273 37.4333 174.953 37.14C174.646 36.8467 174.24 36.6133 173.733 36.44C173.24 36.2533 172.693 36.0933 172.093 35.96C171.493 35.8267 170.886 35.6733 170.273 35.5C169.673 35.3133 169.12 35.08 168.613 34.8C168.12 34.52 167.72 34.1467 167.413 33.68C167.106 33.2 166.953 32.5867 166.953 31.84C166.953 31.12 167.14 30.46 167.513 29.86C167.9 29.2467 168.486 28.76 169.273 28.4C170.073 28.0267 171.086 27.84 172.313 27.84C173.126 27.84 173.933 27.9467 174.733 28.16C175.533 28.3733 176.226 28.68 176.813 29.08L176.153 30.68C175.553 30.28 174.92 29.9933 174.253 29.82C173.586 29.6333 172.94 29.54 172.313 29.54C171.526 29.54 170.88 29.64 170.373 29.84C169.866 30.04 169.493 30.3067 169.253 30.64C169.026 30.9733 168.913 31.3467 168.913 31.76C168.913 32.2533 169.066 32.6467 169.373 32.94C169.693 33.2333 170.1 33.4667 170.593 33.64C171.1 33.8133 171.653 33.9733 172.253 34.12C172.853 34.2533 173.453 34.4067 174.053 34.58C174.666 34.7533 175.22 34.98 175.713 35.26C176.22 35.54 176.626 35.9133 176.933 36.38C177.24 36.8467 177.393 37.4467 177.393 38.18C177.393 38.8867 177.2 39.5467 176.813 40.16C176.426 40.76 175.826 41.2467 175.013 41.62C174.213 41.98 173.2 42.16 171.973 42.16ZM186.575 42.16C185.508 42.16 184.522 41.9867 183.615 41.64C182.722 41.28 181.942 40.78 181.275 40.14C180.622 39.4867 180.108 38.7267 179.735 37.86C179.362 36.9933 179.175 36.04 179.175 35C179.175 33.96 179.362 33.0067 179.735 32.14C180.108 31.2733 180.628 30.52 181.295 29.88C181.962 29.2267 182.742 28.7267 183.635 28.38C184.542 28.02 185.528 27.84 186.595 27.84C187.675 27.84 188.668 28.0267 189.575 28.4C190.495 28.76 191.275 29.3 191.915 30.02L190.615 31.28C190.082 30.72 189.482 30.3067 188.815 30.04C188.148 29.76 187.435 29.62 186.675 29.62C185.888 29.62 185.155 29.7533 184.475 30.02C183.808 30.2867 183.228 30.66 182.735 31.14C182.242 31.62 181.855 32.1933 181.575 32.86C181.308 33.5133 181.175 34.2267 181.175 35C181.175 35.7733 181.308 36.4933 181.575 37.16C181.855 37.8133 182.242 38.38 182.735 38.86C183.228 39.34 183.808 39.7133 184.475 39.98C185.155 40.2467 185.888 40.38 186.675 40.38C187.435 40.38 188.148 40.2467 188.815 39.98C189.482 39.7 190.082 39.2733 190.615 38.7L191.915 39.96C191.275 40.68 190.495 41.2267 189.575 41.6C188.668 41.9733 187.668 42.16 186.575 42.16ZM204.808 28H206.808V42H204.808V28ZM196.768 42H194.768V28H196.768V42ZM204.988 35.76H196.568V34.02H204.988V35.76ZM208.878 42L215.218 28H217.198L223.558 42H221.458L215.798 29.12H216.598L210.938 42H208.878ZM211.578 38.5L212.118 36.9H219.998L220.578 38.5H211.578ZM225.647 42V28H227.287L233.567 38.58H232.687L238.887 28H240.527L240.547 42H238.627L238.607 31.02H239.067L233.547 40.3H232.627L227.067 31.02H227.567V42H225.647ZM244.748 42V28H250.208C251.435 28 252.482 28.1933 253.348 28.58C254.215 28.9667 254.882 29.5267 255.348 30.26C255.815 30.9933 256.048 31.8667 256.048 32.88C256.048 33.8933 255.815 34.7667 255.348 35.5C254.882 36.22 254.215 36.78 253.348 37.18C252.482 37.5667 251.435 37.76 250.208 37.76H245.848L246.748 36.82V42H244.748ZM246.748 37.02L245.848 36.02H250.148C251.428 36.02 252.395 35.7467 253.048 35.2C253.715 34.6533 254.048 33.88 254.048 32.88C254.048 31.88 253.715 31.1067 253.048 30.56C252.395 30.0133 251.428 29.74 250.148 29.74H245.848L246.748 28.74V37.02ZM263.262 42.16C262.195 42.16 261.175 42 260.202 41.68C259.229 41.3467 258.462 40.92 257.902 40.4L258.642 38.84C259.175 39.3067 259.855 39.6933 260.682 40C261.509 40.3067 262.369 40.46 263.262 40.46C264.075 40.46 264.735 40.3667 265.242 40.18C265.749 39.9933 266.122 39.74 266.362 39.42C266.602 39.0867 266.722 38.7133 266.722 38.3C266.722 37.82 266.562 37.4333 266.242 37.14C265.935 36.8467 265.529 36.6133 265.022 36.44C264.529 36.2533 263.982 36.0933 263.382 35.96C262.782 35.8267 262.175 35.6733 261.562 35.5C260.962 35.3133 260.409 35.08 259.902 34.8C259.409 34.52 259.009 34.1467 258.702 33.68C258.395 33.2 258.242 32.5867 258.242 31.84C258.242 31.12 258.429 30.46 258.802 29.86C259.189 29.2467 259.775 28.76 260.562 28.4C261.362 28.0267 262.375 27.84 263.602 27.84C264.415 27.84 265.222 27.9467 266.022 28.16C266.822 28.3733 267.515 28.68 268.102 29.08L267.442 30.68C266.842 30.28 266.209 29.9933 265.542 29.82C264.875 29.6333 264.229 29.54 263.602 29.54C262.815 29.54 262.169 29.64 261.662 29.84C261.155 30.04 260.782 30.3067 260.542 30.64C260.315 30.9733 260.202 31.3467 260.202 31.76C260.202 32.2533 260.355 32.6467 260.662 32.94C260.982 33.2333 261.389 33.4667 261.882 33.64C262.389 33.8133 262.942 33.9733 263.542 34.12C264.142 34.2533 264.742 34.4067 265.342 34.58C265.955 34.7533 266.509 34.98 267.002 35.26C267.509 35.54 267.915 35.9133 268.222 36.38C268.529 36.8467 268.682 37.4467 268.682 38.18C268.682 38.8867 268.489 39.5467 268.102 40.16C267.715 40.76 267.115 41.2467 266.302 41.62C265.502 41.98 264.489 42.16 263.262 42.16Z" fill="black"/>
</svg>
