<svg xmlns="http://www.w3.org/2000/svg" viewBox="0 0 39.5 29.59"><defs><style>.cls-1{fill:#b72929;}</style></defs><g id="Calque_2" data-name="Calque 2"><g id="OBJECTS"><path class="cls-1" d="M39.35.24A.66.66,0,0,0,38.76,0l-.14,0L.49,10.4A.67.67,0,0,0,0,11a.66.66,0,0,0,.45.64l14,4.57-1.24,10a.64.64,0,0,0,.32.65.66.66,0,0,0,.33.09.67.67,0,0,0,.4-.14l5.1-3.91,4.48,6.4a.66.66,0,0,0,.54.28h0a.67.67,0,0,0,.55-.36L39.43,1a.64.64,0,0,0-.08-.71Zm-4.56,2.2L15,15.05,3,11.1ZM14.66,24.82l.91-7.27,3,4.28Zm9.59,2.84L16.06,16,37.17,2.48Z"/></g></g></svg>