<svg xmlns="http://www.w3.org/2000/svg" viewBox="0 0 29.74 29.73"><defs><style>.cls-1{fill:#b72929;}</style></defs><g id="Calque_2" data-name="Calque 2"><g id="OBJECTS"><path class="cls-1" d="M23.9,29.73a12.77,12.77,0,0,1-4.38-.93,32.74,32.74,0,0,1-11-7.56,32.74,32.74,0,0,1-7.56-11C-.31,6.93-.31,4.24.92,3c.18-.17.36-.36.55-.56C2.59,1.27,3.89-.07,5.54,0,6.7.05,7.82.77,9,2.2c3.4,4.23,1.87,5.73.1,7.48L8.75,10c-.29.29-.84,1.63,4.26,6.73a29.24,29.24,0,0,0,4.22,3.62c.71.46,2,1.16,2.51.64l.32-.32c1.74-1.77,3.25-3.3,7.47.1,1.43,1.15,2.15,2.27,2.2,3.43.07,1.69-1.27,3-2.45,4.08-.2.18-.39.36-.56.54A3.92,3.92,0,0,1,23.9,29.73ZM5.42,1C4.23,1,3.15,2.13,2.19,3.14l-.56.58C.71,4.64.81,7,1.87,9.85A31.87,31.87,0,0,0,9.19,20.54a31.91,31.91,0,0,0,10.69,7.33c2.81,1.06,5.21,1.15,6.13.23l.58-.56c1-1,2.19-2.08,2.14-3.31a4,4,0,0,0-1.82-2.69c-3.52-2.83-4.51-1.83-6.14-.18l-.32.32c-.78.79-2,.61-3.77-.51a28.48,28.48,0,0,1-4.37-3.75h0C8.07,13.19,6.72,10.6,8.05,9.28L8.36,9C10,7.33,11,6.35,8.19,2.83A4,4,0,0,0,5.5,1Z"/><path class="cls-1" d="M24.07,12.29a.65.65,0,0,1-.19,0,.5.5,0,0,1-.27-.65A4.21,4.21,0,0,0,18,6.19a.5.5,0,1,1-.41-.91,5.2,5.2,0,0,1,7,6.7A.49.49,0,0,1,24.07,12.29Z"/><path class="cls-1" d="M28.53,14.1a.39.39,0,0,1-.18,0,.5.5,0,0,1-.28-.65A9,9,0,0,0,16,1.8a.51.51,0,0,1-.67-.25.5.5,0,0,1,.25-.66A10,10,0,0,1,29,13.79.51.51,0,0,1,28.53,14.1Z"/></g></g></svg>